<svg width="595" height="181" xmlns="http://www.w3.org/2000/svg" xmlns:xlink="http://www.w3.org/1999/xlink" overflow="hidden"><defs><clipPath id="clip0"><rect x="1186" y="190" width="595" height="181"/></clipPath><clipPath id="clip1"><rect x="1185" y="190" width="184" height="181"/></clipPath><clipPath id="clip2"><rect x="1185" y="190" width="184" height="181"/></clipPath><clipPath id="clip3"><rect x="1185" y="190" width="184" height="181"/></clipPath></defs><g clip-path="url(#clip0)" transform="translate(-1186 -190)"><g clip-path="url(#clip1)"><g clip-path="url(#clip2)"><g clip-path="url(#clip3)"><path d="M143.292 26.3958 154.604 26.3958 154.604 154.604 26.3958 154.604 26.3958 143.292 143.292 143.292Z" stroke="#7B20A3" stroke-width="1.88528" fill="#7B20A3" transform="matrix(1.00553 0 0 1 1186 190)"/><path d="M111.239 65.9895 131.979 65.9895 131.979 131.979 111.239 131.979Z" stroke="#7B20A3" stroke-width="1.88528" fill="#7B20A3" transform="matrix(1.00553 0 0 1 1186 190)"/><path d="M82.9582 26.3958 103.698 26.3958 103.698 131.979 82.9582 131.979Z" stroke="#7B20A3" stroke-width="1.88528" fill="#7B20A3" transform="matrix(1.00553 0 0 1 1186 190)"/><path d="M54.677 65.9895 75.4166 65.9895 75.4166 131.979 54.677 131.979Z" stroke="#7B20A3" stroke-width="1.88528" fill="#7B20A3" transform="matrix(1.00553 0 0 1 1186 190)"/><path d="M26.3958 98.0416 47.1354 98.0416 47.1354 131.979 26.3958 131.979Z" stroke="#7B20A3" stroke-width="1.88528" fill="#7B20A3" transform="matrix(1.00553 0 0 1 1186 190)"/></g></g></g><text fill="#7B20A3" font-family="Gotham Black,Gotham Black_MSFontService,sans-serif" font-weight="900" font-size="55" transform="matrix(1 0 0 1 1372.93 268)">SurveySays<tspan font-size="23" x="-5.22864" y="41">Participate. Collaborate. Innovate.</tspan></text><rect x="1212" y="334" width="559" height="16.9998" fill="#7B20A3"/></g></svg>